# xmcd CD database file
#
# Track frame offsets:
#	150
#	12033
#	24662
#	39729
#	55103
#	69773
#	82202
#	93993
#	107804
#	127067
#	138648
#	152859
#	167634
#	178671
#	192480
#	205606
#	217765
#	229238
#	243352
#	255797
#
# Disc length: 3595 seconds
#
# Revision: 0
# Processed by: cddbd v1.5.2PL0 Copyright (c) Steve Scherf et al.
# Submitted via: CDex 1.70beta2
#
DISCID=0e0e0914
DTITLE=Django Reinhardt - Compilations
DYEAR=1900
DGENRE=Jazz
TTITLE0=Minor Swing
TTITLE1=Tea for two
TTITLE2=I can't give you anything but love
TTITLE3=Chicago
TTITLE4=Georgia on my mind
TTITLE5=Lambeth walk
TTITLE6=The continental
TTITLE7=You rascal you
TTITLE8=La mer
TTITLE9=Dinah
TTITLE10=Les yeux noirs
TTITLE11=Nuages
TTITLE12=Swing 42
TTITLE13=The sheik of Araby
TTITLE14=Djangology
TTITLE15=Night and day
TTITLE16=Tiger rag
TTITLE17=Sweet Georgia Brown
TTITLE18=Echoes of France (La Marseillaise)
TTITLE19=Sifflez en travaillant
EXTD=
EXTT0=
EXTT1=
EXTT2=
EXTT3=
EXTT4=
EXTT5=
EXTT6=
EXTT7=
EXTT8=
EXTT9=
EXTT10=
EXTT11=
EXTT12=
EXTT13=
EXTT14=
EXTT15=
EXTT16=
EXTT17=
EXTT18=
EXTT19=
PLAYORDER=
